<mxfile host="app.diagrams.net" modified="2023-12-26T20:40:18.187Z" agent="Mozilla/5.0 (X11; Linux x86_64) AppleWebKit/537.36 (KHTML, like Gecko) Chrome/120.0.0.0 Safari/537.36" etag="oebms1nFEauCRAl8BwBw" version="22.1.11" type="device">
  <diagram name="Page-1" id="7e0a89b8-554c-2b80-1dc8-d5c74ca68de4">
    <mxGraphModel dx="1479" dy="877" grid="1" gridSize="10" guides="1" tooltips="1" connect="1" arrows="1" fold="1" page="1" pageScale="1" pageWidth="1100" pageHeight="850" background="none" math="0" shadow="0">
      <root>
        <mxCell id="0" />
        <mxCell id="1" parent="0" />
        <mxCell id="tfB4LQAuaoucuqNJ_B2H-1" value="10kÎ©" style="pointerEvents=1;verticalLabelPosition=bottom;shadow=0;dashed=0;align=center;html=1;verticalAlign=top;shape=mxgraph.electrical.resistors.resistor_1;labelBackgroundColor=none;fillColor=#F2CC8F;strokeColor=#E07A5F;fontColor=#393C56;" parent="1" vertex="1">
          <mxGeometry x="400" y="235" width="100" height="20" as="geometry" />
        </mxCell>
        <mxCell id="tfB4LQAuaoucuqNJ_B2H-2" value="photoresistor" style="verticalLabelPosition=bottom;shadow=0;dashed=0;align=center;html=1;verticalAlign=top;shape=mxgraph.electrical.opto_electronics.photo_resistor_3;labelBackgroundColor=none;fillColor=#F2CC8F;strokeColor=#E07A5F;fontColor=#393C56;" parent="1" vertex="1">
          <mxGeometry x="160" y="200" width="100" height="90" as="geometry" />
        </mxCell>
        <mxCell id="tfB4LQAuaoucuqNJ_B2H-3" value="" style="pointerEvents=1;verticalLabelPosition=bottom;shadow=0;dashed=0;align=center;html=1;verticalAlign=top;shape=mxgraph.electrical.signal_sources.signal_ground;labelBackgroundColor=none;fillColor=#F2CC8F;strokeColor=#E07A5F;fontColor=#393C56;" parent="1" vertex="1">
          <mxGeometry x="500" y="270" width="45" height="30" as="geometry" />
        </mxCell>
        <mxCell id="tfB4LQAuaoucuqNJ_B2H-4" value="V&lt;sub&gt;dd&lt;/sub&gt;&amp;nbsp;= 5V" style="verticalLabelPosition=top;verticalAlign=bottom;shape=mxgraph.electrical.signal_sources.vdd;shadow=0;dashed=0;align=center;strokeWidth=1;fontSize=24;html=1;flipV=1;labelBackgroundColor=none;fillColor=#F2CC8F;strokeColor=#E07A5F;fontColor=#393C56;" parent="1" vertex="1">
          <mxGeometry x="50" y="90" width="60" height="40" as="geometry" />
        </mxCell>
        <mxCell id="tfB4LQAuaoucuqNJ_B2H-5" style="edgeStyle=orthogonalEdgeStyle;rounded=0;orthogonalLoop=1;jettySize=auto;html=1;exitX=0.5;exitY=0;exitDx=0;exitDy=0;exitPerimeter=0;entryX=0;entryY=0.5;entryDx=0;entryDy=0;entryPerimeter=0;endArrow=none;endFill=0;labelBackgroundColor=none;strokeColor=#E07A5F;fontColor=default;" parent="1" source="tfB4LQAuaoucuqNJ_B2H-4" target="tfB4LQAuaoucuqNJ_B2H-2" edge="1">
          <mxGeometry relative="1" as="geometry" />
        </mxCell>
        <mxCell id="tfB4LQAuaoucuqNJ_B2H-6" style="edgeStyle=orthogonalEdgeStyle;rounded=0;orthogonalLoop=1;jettySize=auto;html=1;exitX=1;exitY=0.5;exitDx=0;exitDy=0;exitPerimeter=0;entryX=0;entryY=0.5;entryDx=0;entryDy=0;entryPerimeter=0;endArrow=none;endFill=0;labelBackgroundColor=none;strokeColor=#E07A5F;fontColor=default;" parent="1" source="tfB4LQAuaoucuqNJ_B2H-9" target="tfB4LQAuaoucuqNJ_B2H-1" edge="1">
          <mxGeometry relative="1" as="geometry" />
        </mxCell>
        <mxCell id="tfB4LQAuaoucuqNJ_B2H-7" style="edgeStyle=orthogonalEdgeStyle;rounded=0;orthogonalLoop=1;jettySize=auto;html=1;exitX=1;exitY=0.5;exitDx=0;exitDy=0;exitPerimeter=0;entryX=0.5;entryY=0;entryDx=0;entryDy=0;entryPerimeter=0;endArrow=none;endFill=0;labelBackgroundColor=none;strokeColor=#E07A5F;fontColor=default;" parent="1" source="tfB4LQAuaoucuqNJ_B2H-1" target="tfB4LQAuaoucuqNJ_B2H-3" edge="1">
          <mxGeometry relative="1" as="geometry" />
        </mxCell>
        <mxCell id="tfB4LQAuaoucuqNJ_B2H-8" value="" style="edgeStyle=orthogonalEdgeStyle;rounded=0;orthogonalLoop=1;jettySize=auto;html=1;exitX=1;exitY=0.5;exitDx=0;exitDy=0;exitPerimeter=0;entryX=0;entryY=0.5;entryDx=0;entryDy=0;entryPerimeter=0;endArrow=none;endFill=0;labelBackgroundColor=none;strokeColor=#E07A5F;fontColor=default;" parent="1" source="tfB4LQAuaoucuqNJ_B2H-2" target="tfB4LQAuaoucuqNJ_B2H-9" edge="1">
          <mxGeometry relative="1" as="geometry">
            <mxPoint x="260" y="245" as="sourcePoint" />
            <mxPoint x="400" y="245" as="targetPoint" />
          </mxGeometry>
        </mxCell>
        <mxCell id="tfB4LQAuaoucuqNJ_B2H-9" value="" style="verticalLabelPosition=bottom;shadow=0;dashed=0;align=center;html=1;verticalAlign=top;strokeWidth=1;shape=ellipse;perimeter=ellipsePerimeter;labelBackgroundColor=none;fillColor=#F2CC8F;strokeColor=#E07A5F;fontColor=#393C56;" parent="1" vertex="1">
          <mxGeometry x="322.5" y="237.5" width="15" height="15" as="geometry" />
        </mxCell>
        <mxCell id="tfB4LQAuaoucuqNJ_B2H-10" value="ADC: A0" style="shape=mxgraph.arrows2.arrow;verticalLabelPosition=bottom;shadow=0;dashed=0;align=center;html=1;verticalAlign=top;strokeWidth=1;dy=0;dx=10;notch=0;rotation=-90;labelBackgroundColor=none;fillColor=#F2CC8F;strokeColor=#E07A5F;fontColor=#393C56;" parent="1" vertex="1">
          <mxGeometry x="280" y="350" width="100" height="30" as="geometry" />
        </mxCell>
        <mxCell id="tfB4LQAuaoucuqNJ_B2H-11" style="edgeStyle=orthogonalEdgeStyle;rounded=0;orthogonalLoop=1;jettySize=auto;html=1;exitX=0.5;exitY=1;exitDx=0;exitDy=0;entryX=1;entryY=0.5;entryDx=0;entryDy=0;entryPerimeter=0;labelBackgroundColor=none;strokeColor=#E07A5F;fontColor=default;" parent="1" source="tfB4LQAuaoucuqNJ_B2H-9" target="tfB4LQAuaoucuqNJ_B2H-10" edge="1">
          <mxGeometry relative="1" as="geometry" />
        </mxCell>
      </root>
    </mxGraphModel>
  </diagram>
</mxfile>
